<svg width="24" height="24" viewBox="0 0 24 24" fill="none" xmlns="http://www.w3.org/2000/svg">
<g clip-path="url(#clip0_964_30144)">
<path d="M12 23.9994C18.6274 23.9994 24 18.6268 24 11.9994C24 5.37197 18.6274 -0.000610352 12 -0.000610352C5.37258 -0.000610352 0 5.37197 0 11.9994C0 18.6268 5.37258 23.9994 12 23.9994Z" fill="#1C8DC7"/>
<path d="M19.1698 12.9653V17.9127H16.3015V13.2969C16.3015 12.1379 15.8874 11.3465 14.8488 11.3465C14.0563 11.3465 13.5855 11.8793 13.3775 12.3953C13.302 12.5797 13.2826 12.8357 13.2826 13.0943V17.9125H10.414C10.414 17.9125 10.4525 10.0949 10.414 9.28563H13.2828V10.5081C13.277 10.5178 13.2689 10.5272 13.2637 10.5364H13.2828V10.5081C13.664 9.92159 14.3438 9.08306 15.8679 9.08306C17.755 9.08306 19.1698 10.316 19.1698 12.9653ZM7.41326 5.1272C6.43205 5.1272 5.7901 5.77128 5.7901 6.61752C5.7901 7.44578 6.41344 8.10848 7.37561 8.10848H7.39422C8.39468 8.10848 9.01674 7.44578 9.01674 6.61752C8.9977 5.77128 8.39468 5.1272 7.41326 5.1272ZM5.96059 17.9127H8.82807V9.28563H5.96059V17.9127Z" fill="#85B9DE"/>
</g>
<defs>
<clipPath id="clip0_964_30144">
<rect width="24" height="24" fill="white"/>
</clipPath>
</defs>
</svg>
