<svg width="26" height="26" viewBox="0 0 26 26" fill="none" xmlns="http://www.w3.org/2000/svg">
<g clip-path="url(#clip0_921_6981)">
<rect width="35" height="35" transform="translate(-4.5 -4.5)" fill="#49454F" fill-opacity="0.12"/>
<path fill-rule="evenodd" clip-rule="evenodd" d="M18.5417 6.66683H17.75V5.0835H16.1667V6.66683H9.83333V5.0835H8.25V6.66683H7.45833C6.57958 6.66683 5.875 7.37933 5.875 8.25016V19.3335C5.875 20.2043 6.57958 20.9168 7.45833 20.9168H18.5417C19.4125 20.9168 20.125 20.2043 20.125 19.3335V8.25016C20.125 7.37933 19.4125 6.66683 18.5417 6.66683ZM18.5417 19.3335H7.45833V10.6252H18.5417V19.3335ZM8.64583 13.7918C8.64583 12.6993 9.5325 11.8127 10.625 11.8127C11.7175 11.8127 12.6042 12.6993 12.6042 13.7918C12.6042 14.8843 11.7175 15.771 10.625 15.771C9.5325 15.771 8.64583 14.8843 8.64583 13.7918Z" fill="#49454F"/>
</g>
<defs>
<clipPath id="clip0_921_6981">
<rect width="26" height="26" rx="13" fill="white"/>
</clipPath>
</defs>
</svg>
